<svg width="69" height="39" viewBox="0 0 69 39" fill="none" xmlns="http://www.w3.org/2000/svg">
<path d="M68.392 8.2251L45.7559 23.1967V38.1682L50.267 35.3033V25.9692L63.9614 16.9123V26.154L68.392 23.1967V8.2251Z" fill="#00AA6C"/>
<path d="M34.478 30.6825L45.7558 38.1683V23.1967L34.478 15.7109V30.6825Z" fill="#00AA6C"/>
<path d="M34.478 30.6825L23.2002 38.1683V23.1967L34.478 15.7109V30.6825Z" fill="#00AA6C"/>
<path d="M0.563965 8.2251L23.2001 23.1967V38.1682L18.7695 35.3033V25.9692L5.07508 16.9123V26.154L0.563965 23.1967V8.2251Z" fill="#00AA6C"/>
<path d="M52.0391 28.7417L62.1891 21.9953V20.4242L52.0391 27.1706V28.7417Z" fill="#102442"/>
<path d="M52.0391 31.7915L62.1891 25.0451V23.5664L52.0391 30.2204V31.7915Z" fill="#102442"/>
<path d="M68.9556 7.85545L57.1139 0L45.8361 7.48578L34.4778 0L23.2 7.48578L11.9222 0L0 7.85545V23.5664L5.63889 27.263V18.0213L18.125 26.3389V35.5806L23.2 38.9076L34.4778 31.4218L45.7556 38.9076L50.8306 35.5806V26.3389L63.3167 18.0213V27.263L68.9556 23.5664V7.85545ZM22.6361 37.0592L19.3333 34.8412V25.5995L4.43056 15.8033V25.045L1.12778 22.827V9.42654L11.5194 16.3578L22.5556 23.6588V37.0592H22.6361ZM33.9139 30.3128L23.7639 37.0592V23.6588L33.9139 16.9123V30.3128ZM45.1917 37.0592L35.0417 30.3128V16.9123L45.1917 23.6588V37.0592ZM67.8278 22.827L64.525 25.045V15.8033L49.6222 25.5995V34.8412L46.3195 37.0592V23.6588L54.2139 18.391L57.275 16.3578L67.6667 9.42654L67.8278 22.827Z" fill="#102442"/>
<path d="M52.0391 33.2701V34.8412L62.1891 28.0948V26.6161L57.1141 29.9431L52.0391 33.2701Z" fill="#102442"/>
<path d="M6.7666 21.9953L16.9972 28.7417V27.1706L6.7666 20.4242V21.9953Z" fill="#102442"/>
<path d="M6.7666 25.0451L16.9972 31.7915V30.2204L6.7666 23.5664V25.0451Z" fill="#102442"/>
<path d="M6.7666 26.6161V28.0948L16.9972 34.8412V33.2701L11.9222 29.9431L6.7666 26.6161Z" fill="#102442"/>
</svg>
