<svg width="13" height="16" viewBox="0 0 13 16" fill="none" xmlns="http://www.w3.org/2000/svg">
<path d="M8.74011 10.3163L8.32064 10.5795C8.32064 10.5795 7.32361 11.2052 5.7494 8.40434C4.17517 5.60361 5.17217 4.97795 5.17217 4.97795L5.4363 4.81219C6.08704 4.40387 6.35563 3.55081 6.06828 2.80504L5.4806 1.27954C5.12499 0.356514 4.07967 -0.0194377 3.2743 0.48596L1.82878 1.39307C1.42944 1.64367 1.10912 2.01874 1.0137 2.50095C0.769575 3.7346 0.624964 6.48575 2.75838 10.2814C5.02077 14.3064 7.88426 15.1721 9.0983 15.3569C9.48228 15.4154 9.8593 15.2969 10.192 15.0881L11.5002 14.2672C12.3833 13.713 12.5059 12.4089 11.7443 11.6703L10.5584 10.5202C10.0584 10.0352 9.31995 9.95239 8.74011 10.3163Z" fill="#102442"/>
</svg>
