<svg width="35" height="35" viewBox="0 0 35 35" fill="none" xmlns="http://www.w3.org/2000/svg">
<rect y="0.130371" width="34.5283" height="34.5283" rx="5.39504" fill="white"/>
<path d="M24.3851 10.9692H10.1427C9.30829 10.9692 8.63184 11.6457 8.63184 12.4801V25.0128C8.63184 25.8472 9.30829 26.5237 10.1427 26.5237H24.3851C25.2195 26.5237 25.896 25.8472 25.896 25.0128V12.4801C25.896 11.6457 25.2195 10.9692 24.3851 10.9692Z" stroke="#00AA6C" stroke-width="1.07901" stroke-miterlimit="10"/>
<path d="M12.9424 8.26562V13.7288" stroke="#00AA6C" stroke-width="1.07901" stroke-miterlimit="10"/>
<path d="M21.5859 8.26562V13.7288" stroke="#00AA6C" stroke-width="1.07901" stroke-miterlimit="10"/>
<path d="M8.91797 15.844H25.7606" stroke="#00AA6C" stroke-width="1.07901" stroke-miterlimit="10"/>
<path d="M12.7352 18.0305H12.1309C11.7927 18.0305 11.5186 18.3047 11.5186 18.6428V19.2472C11.5186 19.5854 11.7927 19.8595 12.1309 19.8595H12.7352C13.0734 19.8595 13.3476 19.5854 13.3476 19.2472V18.6428C13.3476 18.3047 13.0734 18.0305 12.7352 18.0305Z" fill="#00AA6C"/>
<path d="M17.5702 18.0305H16.9658C16.6277 18.0305 16.3535 18.3047 16.3535 18.6428V19.2472C16.3535 19.5854 16.6277 19.8595 16.9658 19.8595H17.5702C17.9084 19.8595 18.1825 19.5854 18.1825 19.2472V18.6428C18.1825 18.3047 17.9084 18.0305 17.5702 18.0305Z" fill="#00AA6C"/>
<path d="M22.3973 18.0305H21.793C21.4548 18.0305 21.1807 18.3047 21.1807 18.6428V19.2472C21.1807 19.5854 21.4548 19.8595 21.793 19.8595H22.3973C22.7355 19.8595 23.0097 19.5854 23.0097 19.2472V18.6428C23.0097 18.3047 22.7355 18.0305 22.3973 18.0305Z" fill="#00AA6C"/>
<path d="M12.7352 22.1179H12.1309C11.7927 22.1179 11.5186 22.3921 11.5186 22.7302V23.3346C11.5186 23.6728 11.7927 23.9469 12.1309 23.9469H12.7352C13.0734 23.9469 13.3476 23.6728 13.3476 23.3346V22.7302C13.3476 22.3921 13.0734 22.1179 12.7352 22.1179Z" fill="#00AA6C"/>
<path d="M17.5702 22.1179H16.9658C16.6277 22.1179 16.3535 22.3921 16.3535 22.7302V23.3346C16.3535 23.6728 16.6277 23.9469 16.9658 23.9469H17.5702C17.9084 23.9469 18.1825 23.6728 18.1825 23.3346V22.7302C18.1825 22.3921 17.9084 22.1179 17.5702 22.1179Z" fill="#00AA6C"/>
<path d="M22.3973 22.1179H21.793C21.4548 22.1179 21.1807 22.3921 21.1807 22.7302V23.3346C21.1807 23.6728 21.4548 23.9469 21.793 23.9469H22.3973C22.7355 23.9469 23.0097 23.6728 23.0097 23.3346V22.7302C23.0097 22.3921 22.7355 22.1179 22.3973 22.1179Z" fill="#00AA6C"/>
</svg>
