<svg width="35" height="35" viewBox="0 0 35 35" fill="none" xmlns="http://www.w3.org/2000/svg">
<rect y="0.130371" width="34.5283" height="34.5283" rx="5.39504" fill="white"/>
<g clip-path="url(#clip0_39_802)">
<path d="M10.8303 12.0745C10.4803 11.7945 10.1703 11.4445 9.94034 11.0345C9.00034 9.36454 9.61035 7.25454 11.2803 6.33454C12.9503 5.41454 15.0503 6.00454 15.9803 7.67454C16.6703 8.91454 16.5203 10.3845 15.7103 11.4445" stroke="#00AA6C" stroke-miterlimit="10"/>
<path d="M15.6697 12.4244C16.3325 12.4244 16.8697 11.8872 16.8697 11.2244C16.8697 10.5617 16.3325 10.0244 15.6697 10.0244C15.007 10.0244 14.4697 10.5617 14.4697 11.2244C14.4697 11.8872 15.007 12.4244 15.6697 12.4244Z" fill="#00AA6C"/>
<path d="M21.9901 10.5445C20.4201 7.71447 16.8501 6.69447 14.0201 8.26447C11.1901 9.83447 10.1701 13.4045 11.7401 16.2345C13.0001 18.5045 15.5501 19.6045 17.9701 19.1445L22.6401 27.5545L25.7001 29.2845L25.8301 25.7745L25.0001 24.2745L24.0601 24.7945L23.0801 23.0245L24.0201 22.5045L23.2501 21.1245L22.3101 21.6445L21.3101 19.8545L22.2501 19.3345L21.1601 17.3745C22.8401 15.5645 23.2501 12.8145 21.9801 10.5445H21.9901Z" stroke="#00AA6C" stroke-miterlimit="10"/>
</g>
<defs>
<clipPath id="clip0_39_802">
<rect width="17.35" height="24.73" fill="white" transform="translate(9 5.39453)"/>
</clipPath>
</defs>
</svg>
