<svg width="35" height="35" viewBox="0 0 35 35" fill="none" xmlns="http://www.w3.org/2000/svg">
<rect y="0.130371" width="34.5283" height="34.5283" rx="5.39504" fill="white"/>
<path d="M13.21 6.89453H8.77C7.51631 6.89453 6.5 7.91084 6.5 9.16453C6.5 10.4182 7.51631 11.4345 8.77 11.4345H13.21C14.4637 11.4345 15.48 10.4182 15.48 9.16453C15.48 7.91084 14.4637 6.89453 13.21 6.89453Z" stroke="#00AA6C" stroke-miterlimit="10"/>
<path d="M11.9499 23.8546H9.87988V11.4346" stroke="#00AA6C" stroke-miterlimit="10"/>
<path d="M28.4502 23.8545H16.9502" stroke="#00AA6C" stroke-miterlimit="10"/>
<path d="M14.0898 27.0145C15.5147 27.0145 16.6698 25.8594 16.6698 24.4345C16.6698 23.0096 15.5147 21.8545 14.0898 21.8545C12.6649 21.8545 11.5098 23.0096 11.5098 24.4345C11.5098 25.8594 12.6649 27.0145 14.0898 27.0145Z" stroke="#00AA6C" stroke-miterlimit="10"/>
<path d="M21.2795 26.7545C21.8814 26.7545 22.3695 26.2665 22.3695 25.6645C22.3695 25.0625 21.8814 24.5745 21.2795 24.5745C20.6775 24.5745 20.1895 25.0625 20.1895 25.6645C20.1895 26.2665 20.6775 26.7545 21.2795 26.7545Z" stroke="#00AA6C" stroke-miterlimit="10"/>
<path d="M25.6603 26.7545C26.2623 26.7545 26.7503 26.2665 26.7503 25.6645C26.7503 25.0625 26.2623 24.5745 25.6603 24.5745C25.0583 24.5745 24.5703 25.0625 24.5703 25.6645C24.5703 26.2665 25.0583 26.7545 25.6603 26.7545Z" stroke="#00AA6C" stroke-miterlimit="10"/>
<path d="M12.8701 18.4546H15.3201C16.1501 18.4546 16.9401 18.7846 17.5301 19.3646C18.1201 19.9546 18.4401 20.7446 18.4401 21.5746V23.7746" stroke="#00AA6C" stroke-miterlimit="10"/>
<path d="M13.3701 18.4546V21.9446" stroke="#00AA6C" stroke-miterlimit="10"/>
<path d="M26.9195 17.0344H20.1895V23.7644H26.9195V17.0344Z" stroke="#00AA6C" stroke-miterlimit="10"/>
<path d="M23.5098 16.9546V20.8646" stroke="#00AA6C" stroke-miterlimit="10"/>
<path d="M26.9195 10.0945H20.1895V16.8245H26.9195V10.0945Z" stroke="#00AA6C" stroke-miterlimit="10"/>
<path d="M23.5098 10.0046V13.9146" stroke="#00AA6C" stroke-miterlimit="10"/>
</svg>
